<?xml version="1.0" encoding="UTF-8"?>
<svg id="Layer_2" data-name="Layer 2" xmlns="http://www.w3.org/2000/svg" viewBox="0 0 119.62 34.09">
  <defs>
    <style>
      .cls-1 {
        fill: #fff;
      }
    </style>
  </defs>
  <g id="Layer_2-2" data-name="Layer 2">
    <g>
      <path class="cls-1" d="m9.98,24H.62c-.38,0-.62-.24-.62-.58v-.34c0-.34.24-.58.62-.58h3.74V5.52L.72,1.87c-.34-.34-.38-.77-.05-1.1l.14-.14c.34-.34.77-.29,1.1.05l3.74,3.74C6.91,1.54,9.6,0,13.06,0c5.09,0,8.45,2.98,8.45,8.5v14.02h3.98c.38,0,.62.24.62.58v.34c0,.34-.24.58-.62.58h-4.94c-.58,0-.91-.29-.91-.91v-14.59c0-4.32-2.3-6.96-6.67-6.96s-6.72,2.4-6.72,6.96v14.02h3.74c.38,0,.62.24.62.58v.34c0,.34-.24.58-.62.58Z"/>
      <path class="cls-1" d="m39.07,24.48c-5.76,0-9.07-2.93-9.07-8.45v-7.58c0-5.62,3.55-8.45,8.98-8.45s8.98,2.74,8.98,8.35v3.55c0,.62-.29.91-.86.91h-15.22v3.22c0,4.51,2.35,6.91,7.2,6.91s6.91-2.11,6.91-5.38v-.43c0-.34.19-.53.53-.53h.72c.34,0,.53.19.53.53v.43c0,4.27-2.64,6.91-8.69,6.91Zm-7.2-13.15h14.26v-2.98c0-4.61-2.59-6.82-7.15-6.82s-7.1,2.3-7.1,6.91v2.88Z"/>
      <path class="cls-1" d="m68.88,11.67v-3.94c0-4.13-2.02-6.19-6.53-6.19-4.75,0-6.34,2.02-6.34,5.38v.38c0,.34-.19.53-.53.53h-.67c-.34,0-.53-.19-.53-.53v-.38c0-4.37,2.35-6.91,8.06-6.91s8.4,2.59,8.4,7.73v11.23l3.65,3.65c.34.34.38.77.05,1.1l-.14.14c-.34.34-.77.29-1.1-.05l-3.6-3.6c-1.2,2.59-3.98,4.27-7.82,4.27-5.42,0-8.26-2.54-8.26-6.48v-.58c0-4.27,2.98-6.62,8.78-6.62,2.11,0,3.98.24,6.58.86Zm0,5.52v-4.03c-2.54-.62-4.32-.86-6.48-.86-4.66,0-7.06,1.68-7.06,5.09v.67c0,3.02,2.21,4.9,6.53,4.9s7.01-2.35,7.01-5.76Z"/>
      <path class="cls-1" d="m87.79,24h-9.6c-.38,0-.62-.24-.62-.58v-.34c0-.34.24-.58.62-.58h3.74V5.52l-3.65-3.65c-.34-.34-.38-.77-.05-1.1l.14-.14c.34-.34.77-.29,1.1.05l3.74,3.74c1.15-2.78,3.6-4.32,6.96-4.32h1.54c.58,0,.91.29.91.77v.14c0,.48-.34.77-.86.77h-1.58c-4.08,0-6.38,2.35-6.38,6.91v13.83h3.98c.38,0,.62.24.62.58v.34c0,.34-.24.58-.62.58Z"/>
      <path class="cls-1" d="m103.63,34.03c-.48-.14-.77-.62-.53-1.2l3.41-8.83h-.34c-.53,0-.77-.19-1.01-.82l-7.78-21.22h-2.78c-.38,0-.62-.24-.62-.58v-.34c0-.34.24-.58.62-.58h8.5c.38,0,.62.24.62.58v.34c0,.34-.24.58-.62.58h-3.74l7.58,20.93,7.44-20.93h-3.74c-.38,0-.62-.24-.62-.58v-.34c0-.34.24-.58.62-.58h8.35c.38,0,.62.24.62.58v.34c0,.34-.24.58-.62.58h-2.78l-11.33,31.44c-.19.53-.62.82-1.25.62Z"/>
    </g>
  </g>
</svg>