<?xml version="1.0" encoding="UTF-8"?>
<svg id="Layer_2" data-name="Layer 2" xmlns="http://www.w3.org/2000/svg" viewBox="0 0 114.91 31.92">
  <defs>
    <style>
      .cls-1 {
        fill: #fff;
      }
    </style>
  </defs>
  <g id="Layer_2-2" data-name="Layer 2">
    <g>
      <path class="cls-1" d="m14.93.24c4.42,0,6.67,3.17,6.67,8.16v10.56c0,1.1.29,1.58,1.49,1.63l2.88.14v1.82h-11.23v-1.82l2.98-.19v-11.57c0-3.26-1.3-6-4.22-6-2.69,0-5.47,2.98-5.47,7.25v8.74c0,1.25.38,1.58,1.49,1.63l2.88.14v1.82H1.25v-1.82l2.88-.19V6.1c0-1.54-.14-2.21-2.21-2.21H0v-1.78c1.87,0,4.18-.91,6.14-1.87h1.58v5.42C9.6,1.97,12.05.24,14.93.24Z"/>
      <path class="cls-1" d="m37.87,0c5.57,0,9.02,3.74,9.02,10.08l-14.79,2.11c0,4.8,1.54,8.79,6.34,8.79,2.93,0,5.52-1.63,6.86-5.33l1.68.77c-1.01,3.26-4.42,7.01-8.88,7.01-6.38,0-10.56-4.56-10.56-11.86,0-6.58,4.8-11.57,10.32-11.57Zm4.56,7.44c0-3.26-1.44-5.62-4.56-5.62-3.94,0-5.66,3.98-5.66,8.45l8.69-1.25c1.1-.14,1.54-.72,1.54-1.58Z"/>
      <path class="cls-1" d="m63.36,19.11c-.72,1.49-3.36,4.37-7.15,4.37s-6.58-1.49-6.58-5.52,4.56-7.49,13.63-8.64v-2.64c0-2.64-1.49-4.61-4.46-4.61-2.78,0-4.27,1.39-4.27,1.92,0,.77,1.2.82,1.2,2.74,0,1.54-1.3,2.3-2.35,2.3s-2.59-.86-2.59-2.88c0-2.35,2.5-5.95,9.12-5.95,4.22,0,7.25,1.68,7.25,6.82,0,5.42-.1,6.82-.1,9.31s.77,4.27,1.92,4.27c.91,0,1.15-.77,1.78-.77.43,0,.58.58.58.86,0,1.01-1.1,2.35-3.31,2.35-2.98,0-3.94-1.87-4.42-3.94h-.24Zm-.1-8.06c-6.34.82-9.26,2.59-9.26,6.53,0,2.11,1.06,3.74,3.02,3.74,3.26,0,6.24-2.16,6.24-7.78v-2.5Z"/>
      <path class="cls-1" d="m73.25,20.74l3.26-.19c0-5.04-.05-8.98-.19-14.45-.05-1.54-.14-2.21-2.21-2.21h-2.54v-1.78c2.26-.14,4.27-.91,6.24-1.87h1.58l.24,8.21.24.05c1.44-5.14,3.46-8.5,7.01-8.5,1.68,0,3.74,1.58,3.74,3.84,0,1.82-1.06,3.31-2.5,3.31-1.78,0-2.64-1.3-2.64-2.54,0-1.44.96-1.78.96-2.26,0-.14-.14-.24-.29-.24-2.78,0-5.86,6.86-5.86,13.3v3.55c0,1.25.53,1.58,1.63,1.63l3.6.14v1.82h-12.29v-1.82Z"/>
      <path class="cls-1" d="m94.22,25.59c1.39,0,2.26,1.25,2.26,2.59,0,.58.24,1.25.72,1.25,2.74,0,5.09-4.94,5.81-6.82l-8.06-18.24c-.53-1.25-1.44-1.97-3.94-1.97V.58h10.66v1.82c-2.59,0-2.64.38-2.64.91,0,.14.05.34.14.53l6,13.78,4.27-12c.14-.43.24-.82.24-1.15,0-1.68-1.92-2.06-3.94-2.06V.58h9.17v1.82c-1.73.19-2.69,1.97-3.31,3.65l-6.38,16.85c-1.3,3.36-4.22,9.02-9.55,9.02-2.02,0-3.94-1.44-3.94-3.7,0-1.58,1.2-2.64,2.5-2.64Z"/>
    </g>
  </g>
</svg>