<?xml version="1.0" encoding="UTF-8"?>
<svg id="Layer_2" data-name="Layer 2" xmlns="http://www.w3.org/2000/svg" viewBox="0 0 114.1 35.14">
  <defs>
    <style>
      .cls-1 {
        fill: #fff;
      }
    </style>
  </defs>
  <g id="Layer_2-2" data-name="Layer 2">
    <g>
      <path class="cls-1" d="m14.88,25.54v-.96l4.8-.48V8.02c0-4.8-2.21-6.58-5.52-6.58s-6.24,1.39-8.88,3.65v19.01l4.8.48v.96H0v-.96l3.84-.48V2.02l-3.84-.48v-.96h5.28v2.88h.1C7.39,1.82,10.23,0,14.16,0c4.42,0,6.96,2.74,6.96,7.78v16.32l3.84.48v.96h-10.08Z"/>
      <path class="cls-1" d="m29.76,13.78c0,8.45,4.08,10.9,8.64,10.9,3.5,0,5.52-1.3,6.19-1.49l.38.19.14,1.01c-.19.14-2.59,1.73-6.72,1.73-6.24,0-10.08-3.84-10.08-12.34v-1.68c0-7.63,3.74-12.1,9.12-12.1h.48c4.8,0,8.16,3.02,8.16,9.7v.77c0,1.58-.19,3.31-.19,3.31h-16.13Zm0-1.44h14.88v-2.64c0-6.72-3.6-8.26-6.72-8.26h-.48c-3.98,0-7.68,3.02-7.68,10.61v.29Z"/>
      <path class="cls-1" d="m59.76,0c6.72,0,8.88,3.12,8.88,9.6v10.9c0,3.12.96,4.18,2.74,4.32l.67.05v1.2s-.24.05-.53.05c-2.88,0-4.22-1.82-4.32-5.14h-.1c-1.82,2.74-4.51,5.14-8.79,5.14-4.61,0-7.44-3.36-7.44-7.3v-.24c0-4.32,2.5-7.01,8.16-7.68l8.16-.96v-.24c0-5.42-1.39-8.26-7.44-8.26-2.21,0-4.27.43-5.57.72l-.24,3.94h-1.2V1.1c.77-.29,3.79-1.1,7.01-1.1Zm7.44,18.72v-7.34l-8.16.96c-5.38.62-6.72,3.36-6.72,6.24v.24c0,3.41,2.54,5.86,6,5.86,4.46,0,7.06-3.12,8.88-5.95Z"/>
      <path class="cls-1" d="m74.35,24.58l3.84-.48V2.02l-3.84-.48v-.96h5.28v3.02h.05c1.2-2.06,3.26-3.6,6.43-3.6.77,0,1.25.1,1.25.1l-.1,1.15-.24.24s-.62-.05-.96-.05c-2.88,0-5.23,1.63-6.43,4.51v18.15l4.8.48v.96h-10.08v-.96Z"/>
      <path class="cls-1" d="m114.1,1.54l-3.84.48-9.02,28.08c-1.2,3.74-2.26,5.04-5.33,5.04h-1.82v-1.2l.29-.24h1.54c2.06,0,2.78-.58,4.03-4.32l1.25-3.84-8.54-23.52-3.84-.48v-.96h9.22v.96l-3.84.48,6.34,17.43,1.25,4.37h.19l1.15-4.37,5.66-17.43-3.84-.48v-.96h9.17v.96Z"/>
    </g>
  </g>
</svg>