<?xml version="1.0" encoding="UTF-8"?>
<svg id="Layer_2" data-name="Layer 2" xmlns="http://www.w3.org/2000/svg" viewBox="0 0 176.62 42.7">
  <defs>
    <style>
      .cls-1 {
        fill: #fff;
      }
    </style>
  </defs>
  <g id="Layer_2-2" data-name="Layer 2">
    <g>
      <path class="cls-1" d="m5.47,8.14c0-2.09-2.74-2.02-5.47-1.94v-2.23c2.59,0,5.69-1.08,9.14-3.1v5.98l2.3-2.38c2.66-2.45,6.05-3.6,10.23-3.6,7.34,0,9.22,5.18,9.22,9.72v19.37c0,1.87,1.3,2.74,2.66,2.74h2.88v2.23h-14.62v-2.23h2.59c1.58,0,2.81-1.01,2.81-2.74V10.58c0-3.67-2.02-7.49-7.2-7.49-4.03,0-9.43,3.1-10.87,7.85v19.23c0,1.87,1.01,2.52,2.23,2.52h2.81v2.23H.22v-2.23h2.16c1.73,0,3.1-.22,3.1-2.52V8.14Z"/>
      <path class="cls-1" d="m44.28,16.92v1.66c0,7.99,5.54,15.48,12.82,15.48,5.54,0,8.64-3.74,11.95-8.28l1.87,1.3c-5.69,7.27-8.71,9.22-14.55,9.22-11.09,0-15.77-9.79-15.77-17.71,0-11.3,7.49-18.58,15.05-18.58s14.47,6.77,14.47,16.92h-25.85Zm22.11-2.23c-.29-4.25-1.3-7.42-3.24-9.43-1.87-2.02-4.32-3.02-7.49-3.02-5.47,0-10.15,5.11-11.23,12.46h21.96Z"/>
      <path class="cls-1" d="m96.34,32.62c-3.17,2.45-6.91,3.74-11.3,3.74-3.24,0-8.86-1.66-8.86-8.64,0-2.88,1.15-5.26,3.67-7.2,3.31-2.52,9.43-4.32,18.51-5.54v-4.75c0-4.82-4.54-7.92-8.71-7.92-5.18,0-7.63,3.31-7.63,4.82v.86c.14.79.43,2.88-2.09,2.88-1.8,0-2.23-1.37-2.23-2.23,0-4.46,4.97-8.57,11.95-8.57,7.63,0,12.38,5.18,12.38,10.15v16.71c0,2.66,0,7.2,1.51,7.2.65,0,1.51-1.37,2.45-3.96l2.02,1.08c-1.44,4.61-3.38,5.11-5.26,5.11-3.82,0-4.1-3.53-4.32-5.98l-2.09,2.23Zm2.02-15.34c-7.2,1.22-12.31,2.88-15.34,4.97-2.16,1.37-3.17,3.24-3.17,5.47,0,3.89,3.46,6.41,6.62,6.41,4.54,0,11.16-3.24,11.88-8.5v-8.35Z"/>
      <path class="cls-1" d="m115.92,7.7c0-1.51-1.08-1.94-5.76-1.94v-2.23c2.66,0,5.83-.94,9.43-2.66v7.06c1.3-1.8,5.33-7.06,11.38-7.06,2.45,0,5.54.5,5.54,4.1,0,1.37-1.01,2.16-2.45,2.16-1.22,0-2.16-.5-2.88-1.44s-1.66-1.3-2.95-1.3c-3.24,0-6.34,2.95-8.64,8.14v17.21c0,2.3.58,2.95,2.66,2.95h2.66v2.23h-14.62v-2.23c4.18,0,5.62,0,5.62-2.95V7.7Z"/>
      <path class="cls-1" d="m142.85,6.48c-1.3-2.88-2.38-2.88-5.62-2.88V1.37h13.54v2.23h-3.17c-.94,0-1.37.36-1.37,1.01,0,.43.14.94.43,1.51l10.15,22.39,10.51-22.25c.22-.5.36-1.01.36-1.37,0-.86-.65-1.3-1.87-1.3h-3.24V1.37h14.04v2.23h-2.66c-1.08,0-3.6.22-4.54,2.59l-13.03,28.01c-2.74,5.98-6.41,8.5-9.87,8.5-2.3,0-5.11-1.08-5.11-3.6,0-2.16,1.8-2.38,2.23-2.38.79,0,1.73.36,2.66,1.01.86.58,1.51.86,2.09.86,2.3,0,4.18-1.22,5.47-3.82l1.01-2.16-12.02-26.14Z"/>
    </g>
  </g>
</svg>